<?xml version="1.0" encoding="UTF-8"?>
<svg id="Layer_2" data-name="Layer 2" xmlns="http://www.w3.org/2000/svg" viewBox="0 0 79.83 74.52">
  <defs>
    <style>
      .cls-1 {
        fill: #db6e44;
      }

      .cls-2 {
        fill: #575756;
      }

      .cls-3 {
        fill: #4a3856;
      }
    </style>
  </defs>
  <g id="Layer_1-2" data-name="Layer 1">
    <g>
      <g>
        <path class="cls-2" d="M1.3,12.43h2.2s3.2.01,3.2.01h5.74v-1.26h-3.53l-.22-2.2-1.01.86.13,1.34H3.07l-.25-2.73-1.01.86.04.22c-.11-.02-.21-.02-.3-.02-.19,0-.37.04-.53.12s-.32.21-.47.38c-.15.17-.25.33-.3.48-.05.16-.07.33-.07.49,0,.37.13.71.38,1.01s.51.45.75.45ZM1.31,10.79c.05-.07.11-.11.2-.14.05-.02.1-.02.13-.02.1,0,.19.03.26.1.07.06.11.14.11.23,0,.06-.01.12-.04.17-.03.05-.07.1-.11.14-.11.08-.2.12-.27.12-.1,0-.17-.04-.23-.11-.06-.07-.09-.16-.09-.26.01-.1.03-.16.06-.21Z"/>
        <path class="cls-2" d="M.63,7.84c.04.08.07.14.12.19.12.11.26.16.41.16.07,0,.15-.01.22-.04.07-.03.13-.07.18-.12.11-.11.17-.25.17-.41s-.06-.3-.17-.4c-.05-.06-.12-.1-.18-.13-.06-.03-.13-.04-.22-.04-.17,0-.3.06-.41.17-.11.11-.16.25-.16.4,0,.04,0,.08.01.12s.02.08.03.11Z"/>
        <path class="cls-2" d="M1.99,7.84c.04.08.07.14.12.19.12.11.26.16.41.16.07,0,.15-.01.22-.04.08-.04.14-.07.18-.12.11-.11.17-.25.17-.41s-.06-.29-.17-.4c-.1-.11-.24-.17-.4-.17s-.3.05-.4.16-.16.24-.16.4c0,.04,0,.08.01.12s.02.08.03.11Z"/>
        <path class="cls-2" d="M8.85,14.3c.16,0,.29-.06.4-.17.11-.1.17-.24.17-.4s-.05-.3-.16-.4-.24-.16-.4-.16-.3.05-.41.16c-.11.12-.16.26-.16.41,0,.07.01.15.04.22.04.08.07.14.12.18.11.11.25.17.41.17Z"/>
        <path class="cls-2" d="M7.89,14.14c.11-.1.17-.24.17-.4s-.05-.3-.16-.4-.24-.16-.4-.16-.3.05-.41.16c-.1.11-.16.25-.16.41s.05.3.16.41c.11.11.24.17.4.17s.3-.06.4-.17Z"/>
        <path class="cls-2" d="M19.46,12.44h1.05c.26.26.45.42.57.5.12.08.39.12.81.12.26,0,.52-.05.76-.16.25-.11.44-.26.59-.46h6.29s4.7.01,4.7.01c.52-.57.85-.9.99-1l.31-.23c-.86,0-1.62-.15-2.28-.45-.67-.31-1.16-.61-1.48-.9-.18-.16-.35-.32-.5-.47l-.49-.53s-.03.03-.06.06c-.03.03-.06.06-.08.08l-.22.2-.62.58.46.49c.1.11.25.25.45.41.2.16.43.33.69.5h-7.87c0-.48-.13-.85-.39-1.08-.26-.24-.51-.36-.76-.36-.06,0-.15-.01-.27-.03-.12-.01-.23-.02-.33-.02-.01,0-.08,0-.22,0s-.23,0-.29,0l-.67-.02h-.35s0,1.53,0,1.53h-6.27c.03-.14.07-.23.12-.27.02-.02.05-.05.07-.07.02-.02.06-.05.11-.08h1.19c.18,0,.34-.07.49-.22s.22-.39.22-.71c0-.12-.02-.27-.05-.45-.03-.18-.08-.37-.15-.57l-.13.38c-.04.11-.08.19-.12.24-.07.11-.16.17-.28.17h-.05s-.11-.02-.11-.02h-.29s-.1,0-.17,0c-.07,0-.12,0-.15,0h-.8c-.22,0-.42.15-.59.43-.17.28-.26.67-.26,1.15h-.59v1.26h7.02ZM21.43,11.04s.01-.07.02-.09c.12,0,.22,0,.32.02.1.01.16.02.19.03.03,0,.07.02.11.03.17.05.26.15.26.27,0,.1-.04.21-.13.33-.08.12-.18.18-.27.18-.13,0-.25-.07-.35-.22-.1-.15-.16-.3-.16-.45,0-.03,0-.07.01-.11Z"/>
        <path class="cls-2" d="M32,14.32c.17,0,.3-.06.41-.17.11-.11.16-.25.16-.41,0-.08-.01-.16-.04-.22-.03-.07-.07-.13-.12-.19-.11-.11-.24-.16-.4-.16s-.29.05-.41.16c-.11.12-.16.26-.16.41,0,.07.01.15.04.22.04.08.07.14.12.18.11.11.25.17.41.17Z"/>
        <path class="cls-2" d="M.73,26.72c.22.19.46.33.7.43.24.09.5.14.78.14.16-.03.33-.07.49-.13.19-.07.35-.13.5-.2.35-.17.58-.44.68-.83.04-.11.06-.21.08-.29s.04-.16.05-.23c.02-.14.04-.27.04-.37,0-.12,0-.23-.02-.32l-.03-.17-.04-.18c-.03-.16-.12-.36-.26-.58-.08-.13-.16-.24-.24-.34l-.23-.28-.36.39-.43.5c.04.05.07.09.08.1.03.04.06.09.11.15.03.05.06.09.08.13.02.04.04.08.06.11.04.08.07.16.09.24s.03.16.03.24c0,.19-.08.36-.24.5-.16.14-.33.22-.53.25-.03,0-.06.01-.11.02-.05,0-.09.01-.13.01h-.17c-.39.01-.69-.17-.89-.52-.1-.18-.18-.37-.23-.58s-.07-.42-.07-.65v-.28s.06-.26.06-.26c-.09.14-.17.28-.24.42s-.12.26-.16.38c-.03.07-.05.14-.06.19-.01.05-.02.11-.03.18-.02.12-.03.24-.03.36,0,.3.06.57.17.81.11.24.28.46.5.65Z"/>
        <path class="cls-2" d="M1.66,22.29c-.16,0-.29.06-.4.17s-.17.25-.17.4c0,.08.01.16.04.23.03.07.07.13.13.18.11.11.25.16.4.16.16,0,.3-.05.41-.16.11-.11.16-.24.16-.41s-.06-.3-.17-.4c-.05-.06-.12-.1-.18-.13-.06-.03-.13-.04-.22-.04Z"/>
        <path class="cls-2" d="M18.37,25.82l1.27-1.26-1.63-2.55c-.09-.15-.18-.29-.28-.41-.09-.12-.19-.23-.3-.32s-.21-.18-.31-.25c-.1-.07-.21-.13-.32-.17-.11-.05-.23-.09-.34-.11-.11-.02-.23-.03-.36-.03-.39,0-.74.12-1.04.35s-.53.57-.69,1.01c.18-.15.35-.25.51-.31.18-.07.34-.1.49-.1.16,0,.31.02.45.07.13.05.26.12.37.21.25.2.44.41.58.61l1.28,2h-.52l-1.47-2.28c-.41.1-.8.28-1.18.55-.2.14-.35.26-.46.37-.11.11-.19.21-.23.3-.09.18-.15.31-.18.4-.02.06-.03.1-.03.13v.11c0,.08.01.17.04.25.05.08.1.14.16.18h-7.64l-.52-5.25-1,1.05.53,5.46h12.81ZM15.35,24.13c.02-.09.04-.14.07-.17s.06-.03.11-.03c.04,0,.07,0,.09.02l.04.02.04.02.34.55h-.45l-.19-.14s-.05-.11-.05-.19v-.09Z"/>
        <path class="cls-2" d="M21.26,25.83l-.07.33c-.04.16-.14.36-.3.61-.16.25-.37.46-.61.63.08.02.16.02.23.02.21,0,.41-.04.6-.12s.38-.2.57-.36c.38-.32.57-.69.57-1.12h3.38s2.91,0,2.91,0h0s2.47,0,2.47,0h1.33l1.26-1.39-.49-5.12-.98,1.1.38,4.14h-4.66l-.22-2.21-1.01.86.13,1.34h-4.45l-.23-2.03-1.02.99.11.64c.05.29.07.51.07.68.03.32.05.59.05.81v.11s0,.09,0,.09Z"/>
        <path class="cls-2" d="M27.63,27.51c.11-.11.16-.25.16-.41,0-.08-.01-.16-.04-.22-.03-.07-.07-.13-.12-.19-.11-.11-.24-.16-.4-.16s-.29.05-.41.16c-.11.12-.16.26-.16.41,0,.09.01.16.04.23s.07.13.12.18c.11.11.25.16.4.16.17,0,.3-.06.41-.17Z"/>
        <polygon class="cls-2" points="34.97 19.31 34.03 20.4 34.53 25.82 35.51 24.76 34.97 19.31"/>
        <path class="cls-2" d="M2,34.78c.12.11.26.16.41.16.07,0,.15-.01.22-.04.08-.04.14-.07.18-.12.11-.11.17-.25.17-.41s-.06-.29-.17-.4c-.1-.11-.24-.17-.4-.17s-.3.05-.4.16-.16.24-.16.4c0,.04,0,.08.01.12s.02.08.03.11c.04.08.07.14.12.19Z"/>
        <path class="cls-2" d="M.64,34.78c.12.11.26.16.41.16.07,0,.15-.01.22-.04.07-.03.13-.07.18-.12.11-.11.17-.25.17-.41s-.06-.3-.17-.4c-.05-.06-.12-.1-.18-.13-.06-.03-.13-.04-.22-.04-.17,0-.3.06-.41.17-.11.11-.16.25-.16.4,0,.04,0,.08.01.12s.02.08.03.11c.04.08.07.14.12.19Z"/>
        <path class="cls-2" d="M11.63,39.4c.33-.28.49-.7.49-1.27s-.13-.96-.4-1.23c-.26-.27-.52-.41-.76-.41-.06,0-.15-.01-.27-.03-.12-.01-.23-.02-.33-.02-.01,0-.08,0-.22,0s-.23,0-.29,0l-.67-.02h-.35s0,1.53,0,1.53H2.96l-.25-2.73-1.01.86.04.22c-.11-.02-.21-.02-.3-.02-.19,0-.37.04-.53.12s-.32.21-.47.38c-.15.17-.25.33-.3.48-.05.16-.07.33-.07.49,0,.37.13.71.38,1.01.26.3.51.45.75.45h2.2s4.65.01,4.65.01h1.05c.26.26.45.42.57.5.12.08.39.12.81.12.45,0,.83-.14,1.16-.42ZM1.85,37.86c-.03.05-.07.1-.11.14-.11.08-.2.12-.27.12-.1,0-.17-.04-.23-.11-.06-.07-.09-.16-.09-.26.01-.1.03-.16.06-.21.05-.07.11-.11.2-.14.05-.02.1-.02.13-.02.1,0,.19.03.26.1.07.06.11.14.11.23,0,.06-.01.12-.04.17ZM10.16,38.35c-.1-.15-.16-.3-.16-.45,0-.03,0-.07.01-.11,0-.04.01-.07.02-.09.12,0,.22,0,.32.02.1.01.16.02.19.03.03,0,.07.02.11.03.17.05.26.15.26.27,0,.1-.04.21-.13.33-.08.12-.18.18-.27.18-.13,0-.25-.07-.35-.22Z"/>
        <path class="cls-2" d="M28.48,35.67c.07,0,.15-.01.22-.04.08-.04.14-.07.18-.12.06-.06.1-.13.12-.19.03-.06.04-.14.04-.22s-.01-.16-.04-.23-.07-.13-.12-.18c-.11-.11-.24-.16-.4-.16-.08,0-.16.01-.22.04-.07.03-.13.07-.18.12-.11.11-.16.24-.16.4s.05.29.16.41c.12.11.26.16.41.16Z"/>
        <path class="cls-2" d="M34.59,37.93h-2.51s-.1,0-.22,0l-.13.02h-.24s-.17,0-.17,0c-.78-.01-1.5-.17-2.16-.47-.68-.32-1.23-.7-1.67-1.12l-.71-.79s-.03.03-.06.06c-.03.03-.06.06-.08.08l-.22.2-.62.58.46.49c.1.11.25.25.45.41.2.16.43.33.69.52h-8.92c0-.53-.15-.95-.46-1.25s-.58-.46-.81-.46h-1.9c-.14-.02-.27-.07-.39-.15-.12-.1-.18-.35-.18-.74l-1.71,2.16h3.75l.16.06.12.06c.09.05.13.12.13.22,0,.03,0,.07-.02.11h-4.23v1.26h12.58s6.56,0,6.56,0h2.34l1.26-1.39-.49-5.12-.98,1.1.38,4.14Z"/>
        <path class="cls-2" d="M2.36,47.17c-.16,0-.3.05-.4.16s-.16.24-.16.4c0,.04,0,.08.01.12s.02.08.03.11c.04.08.07.14.12.19.12.11.26.16.41.16.07,0,.15-.01.22-.04.08-.04.14-.07.18-.12.11-.11.17-.25.17-.41s-.06-.29-.17-.4c-.1-.11-.24-.17-.4-.17Z"/>
        <path class="cls-2" d="M1,47.17c-.17,0-.3.06-.41.17-.11.11-.16.25-.16.4,0,.04,0,.08.01.12s.02.08.03.11c.04.08.07.14.12.19.12.11.26.16.41.16.07,0,.15-.01.22-.04.07-.03.13-.07.18-.12.11-.11.17-.25.17-.41s-.06-.3-.17-.4c-.05-.06-.12-.1-.18-.13-.06-.03-.13-.04-.22-.04Z"/>
        <path class="cls-2" d="M10.5,45.85c.05-.08.08-.19.08-.33v-.12s-.04-.14-.04-.14l-.07.02c0,.07,0,.13-.01.18l-.27.15s-.03-.06-.04-.09l-.02-.11-.05.02c-.03.13-.06.23-.08.29l-.2.11s-.01,0-.02.01c-.01-.01-.03-.03-.03-.04-.01-.03-.02-.07-.02-.1,0-.04,0-.08,0-.14h-.06s-.03.11-.03.11c-.02.04-.03.07-.03.09v.09s0,.09.02.15h0s-.01.07-.01.11l.05-.03s.09.07.15.07.12-.02.18-.07c.06-.05.1-.11.11-.17l.08.05h.09c.09,0,.16-.04.21-.12Z"/>
        <path class="cls-2" d="M9.82,47.59c-.08,0-.16.01-.22.04-.07.03-.13.07-.18.12-.11.11-.16.24-.16.4s.05.29.16.41c.11.11.25.16.41.16.09,0,.16-.01.23-.04s.13-.07.18-.12c.11-.11.16-.25.16-.4,0-.17-.06-.3-.17-.4-.1-.11-.24-.17-.4-.17Z"/>
        <path class="cls-2" d="M27.49,46.78l-.15.09.07.02h.09c.08.01.17-.03.27-.11.07-.06.16-.15.27-.27l.12.08.1.06.02-.27-.04-.03-.07-.05.04-.1.03-.1.02-.05v-.07c0-.16-.06-.24-.19-.24-.04,0-.08.01-.12.04-.04.03-.07.07-.1.11-.07.13-.1.23-.1.3,0,.05.01.09.03.12l.13.12c-.15.14-.25.22-.3.26l-.13.09ZM27.9,46.03v-.04s.05-.02.05-.02c.05.01.09.03.11.06.02.03.03.06.03.11l-.02.09-.09-.07-.05-.05s-.03-.06-.03-.09Z"/>
        <path class="cls-2" d="M33.1,46.06l-.98,1.1.38,4.14h-1.74l-1.82-2.82-1.09.77,1.32,2.05h-.52l-1.15-1.84-1.04.78.69,1.06h-.45l-.59-.91-1.17.92h-14.09l-.22-2.2-1.01.86.13,1.34H2.91l-.25-2.73-1.01.86.04.22c-.11-.02-.21-.02-.3-.02-.19,0-.37.04-.53.12s-.32.21-.47.38c-.15.17-.25.33-.3.48-.05.16-.07.33-.07.49,0,.37.13.71.38,1.01s.51.45.75.45h2.2s2.47.01,2.47.01h18.44s7.12,0,7.12,0h0s.96,0,.96,0l1.26-1.39-.49-5.12ZM1.8,51.24c-.03.05-.07.1-.11.14-.11.08-.2.12-.27.12-.1,0-.17-.04-.23-.11-.06-.07-.09-.16-.09-.26.01-.1.03-.16.06-.21.05-.07.11-.11.2-.14.05-.02.1-.02.13-.02.1,0,.19.03.26.1.07.06.11.14.11.23,0,.06-.01.12-.04.17Z"/>
        <polygon class="cls-2" points="34.53 52.57 35.51 51.5 34.97 46.06 34.03 47.14 34.53 52.57"/>
        <path class="cls-2" d="M4.09,64.87l-.04-.18c-.03-.16-.12-.36-.26-.58-.08-.13-.16-.24-.24-.34l-.23-.28-.36.39-.43.5c.04.05.07.09.08.1.03.04.06.09.11.15.03.05.06.09.08.13.02.04.04.08.06.11.04.08.07.16.09.24s.03.16.03.24c0,.19-.08.36-.24.5-.16.14-.33.22-.53.25-.03,0-.06.01-.11.02-.05,0-.09.01-.13.01h-.17c-.39.01-.69-.17-.89-.52-.1-.18-.18-.37-.23-.58s-.07-.42-.07-.65v-.28s.06-.26.06-.26c-.09.14-.17.28-.24.42s-.12.26-.16.38c-.03.07-.05.14-.06.19-.01.05-.02.11-.03.18-.02.12-.03.24-.03.36,0,.3.06.57.17.81.11.24.28.46.5.65.22.19.46.33.7.43.24.09.5.14.78.14.16-.03.33-.07.49-.13.19-.07.35-.13.5-.2.35-.17.58-.44.68-.83.04-.11.06-.21.08-.29s.04-.16.05-.23c.02-.14.04-.27.04-.37,0-.12,0-.23-.02-.32l-.03-.17Z"/>
        <path class="cls-2" d="M1.76,63.55c.16,0,.3-.05.41-.16.11-.11.16-.24.16-.41s-.06-.3-.17-.4c-.05-.06-.12-.1-.18-.13-.06-.03-.13-.04-.22-.04-.16,0-.29.06-.4.17s-.17.25-.17.4c0,.08.01.16.04.23.03.07.07.13.13.18.11.11.25.16.4.16Z"/>
        <polygon class="cls-2" points="5.17 60.52 5.67 65.94 6.65 64.88 6.11 59.43 5.17 60.52"/>
        <path class="cls-2" d="M5.37,59.45c.07.02.13.02.16.02.11,0,.21-.06.31-.18.1-.12.21-.36.34-.71l-.2-.21c-.12.25-.21.41-.27.5-.08.09-.16.14-.22.14-.05-.01-.11-.05-.18-.11-.1-.07-.16-.11-.19-.11-.07,0-.12.04-.16.09l-.07.17c-.04.1-.12.24-.22.42l.13.64c.08-.29.15-.47.21-.55.07-.09.14-.14.22-.14l.14.02Z"/>
        <path class="cls-2" d="M24.35,61.53c.12.11.26.16.41.16.07,0,.15-.01.22-.04.07-.03.13-.07.18-.12.11-.11.17-.25.17-.41s-.06-.3-.17-.4c-.05-.06-.12-.1-.18-.13-.06-.03-.13-.04-.22-.04-.17,0-.3.06-.41.17-.11.11-.16.25-.16.4,0,.04,0,.08.01.12,0,.04.02.08.03.11.04.08.07.14.12.19Z"/>
        <path class="cls-2" d="M25.71,61.53c.12.11.26.16.41.16.07,0,.15-.01.22-.04.08-.04.14-.07.18-.12.11-.11.17-.25.17-.41s-.06-.29-.17-.4c-.1-.11-.24-.17-.4-.17s-.3.05-.4.16c-.11.11-.16.24-.16.4,0,.04,0,.08.01.12,0,.04.02.08.03.11.04.08.07.14.12.19Z"/>
        <path class="cls-2" d="M28.41,60.53l.38,4.14h-1.81l-.18-2.67-.29.24-.26.2-.4.3c-.08-.02-.16-.02-.25-.02-.41,0-.8.14-1.18.4-.38.27-.56.68-.56,1.22v.15s.03.18.03.18h-14.62l-.23-2.03-1.02.99.11.64c.05.29.07.51.07.68.03.32.05.59.05.81v.11s0,.09,0,.09l-.07.33c-.04.16-.14.36-.3.61-.16.25-.37.46-.61.63.08.02.16.02.23.02.21,0,.41-.04.6-.12s.38-.2.57-.36c.38-.32.57-.69.57-1.12h19.39l1.26-1.39-.49-5.12-.98,1.1ZM25.64,64.56c-.05.04-.11.07-.16.09s-.09.03-.13.03c-.1,0-.18-.04-.24-.11-.05-.05-.07-.1-.08-.14v-.13s0-.13,0-.13l.05-.1c.05-.07.12-.12.2-.16.05-.02.09-.02.12-.02.12,0,.22.03.29.1.07.07.11.15.11.25,0,.13-.06.23-.17.32Z"/>
        <polygon class="cls-2" points="30.31 60.52 30.81 65.94 31.8 64.88 31.25 59.43 30.31 60.52"/>
        <path class="cls-2" d="M35.49,64.93l-.07-.92c-.06-.66-.11-1.15-.16-1.49l-.92.85c-.1-.05-.24-.07-.41-.07-.33,0-.64.1-.91.31-.27.22-.4.56-.4,1.02,0,.49.16.84.48,1.05.17.11.36.2.59.25.22.05.49.07.79.07,0,.02.01.06.01.12,0,.11-.02.22-.06.33-.04.11-.09.22-.16.34-.15.24-.38.44-.7.61.1.02.19.02.27.02.21,0,.41-.04.59-.11.19-.07.37-.18.55-.32.36-.29.54-.69.54-1.2,0-.08,0-.22-.01-.41,0-.19-.01-.34-.01-.45ZM34.18,64.89c-.1.07-.18.11-.24.11-.1,0-.17-.03-.22-.1-.05-.07-.08-.15-.08-.23.01-.08.03-.14.06-.18.02-.03.05-.06.07-.07.02-.02.06-.04.1-.06l.07-.02h.06c.11,0,.18.04.23.08.06.05.09.12.09.21,0,.11-.05.21-.15.28Z"/>
      </g>
      <g>
        <g>
          <rect class="cls-3" x="42.55" y="61.01" width="37.28" height="6.61"/>
          <rect class="cls-3" x="42.55" y="50.49" width="37.28" height="6.61"/>
          <rect class="cls-3" x="42.49" y="7.09" width="37.33" height="6.52"/>
          <polygon class="cls-3" points="42.49 46.59 42.49 17.52 49.01 17.52 49.01 40.06 60.16 40.06 66.35 31.34 70.65 34.4 70.64 36.61 68.19 40.06 73.26 40.06 73.26 33.06 65.72 27.7 59.4 36.59 54.07 32.79 64.18 18.57 79.79 29.66 79.79 46.56 79.74 46.56 79.74 46.59 42.49 46.59"/>
        </g>
        <rect class="cls-1" x="57.51" y="65.64" width="7.36" height="7.36" transform="translate(-31.09 63.57) rotate(-45)"/>
        <rect class="cls-1" x="57.53" y="1.52" width="7.36" height="7.36" transform="translate(14.25 44.8) rotate(-45)"/>
      </g>
    </g>
  </g>
</svg>